<svg width="30" height="30" viewBox="0 0 30 30" fill="none" xmlns="http://www.w3.org/2000/svg">
<path fill-rule="evenodd" clip-rule="evenodd" d="M30 15C30 23.2843 23.2843 30 15 30C6.71573 30 0 23.2843 0 15C0 6.71573 6.71573 0 15 0C23.2843 0 30 6.71573 30 15ZM21.3263 9.09918L6.86383 14.6754C5.87258 15.0629 5.89008 15.6117 6.69383 15.8667L10.3963 17.0217L18.9851 11.6142C19.3838 11.3492 19.7538 11.4992 19.4513 11.7654L12.5013 18.0442L12.2351 21.8604C12.6226 21.8604 12.7913 21.6917 12.9913 21.4917L14.8001 19.7492L18.5501 22.5129C19.2338 22.9004 19.7226 22.7004 19.9051 21.8779L22.3676 10.2767L22.3663 10.2779C22.5838 9.26293 21.9976 8.85668 21.3263 9.09918Z" fill="white"/>
</svg>
