<svg width="30" height="30" viewBox="0 0 30 30" fill="none" xmlns="http://www.w3.org/2000/svg">
<g style="mix-blend-mode:luminosity">
<path fill-rule="evenodd" clip-rule="evenodd" d="M15 0C23.2843 0 30 6.7157 30 15C30 23.2843 23.2843 30 15 30C6.7157 30 0 23.2843 0 15C0 6.7157 6.7157 0 15 0ZM23.1444 9.94849C22.5455 10.2163 21.9004 10.3943 21.2267 10.4736C21.9169 10.0603 22.4447 9.40534 22.6967 8.62549C22.0516 9.007 21.3347 9.28681 20.575 9.43648C19.9642 8.78749 19.0967 8.38402 18.1356 8.38402C16.2902 8.38402 14.7962 9.87892 14.7962 11.7231C14.7962 11.9835 14.825 12.2381 14.8816 12.4836C12.105 12.3428 9.6433 11.0136 7.99549 8.99107C7.69984 9.50101 7.54351 10.0809 7.54351 10.6706V10.6709C7.54351 11.8289 8.13139 12.8531 9.02851 13.4503C8.48104 13.4341 7.96615 13.2815 7.51399 13.034V13.0757C7.51399 14.6951 8.665 16.0463 10.1945 16.3517C9.91429 16.4278 9.61846 16.4699 9.31372 16.4699C9.0979 16.4699 8.88991 16.4476 8.68309 16.41C9.11023 17.7363 10.3434 18.703 11.8037 18.7312C10.6587 19.6282 9.22066 20.1624 7.65286 20.1624C7.38233 20.1624 7.11872 20.1458 6.85547 20.1143C8.3374 21.0652 10.0929 21.6159 11.979 21.6159C18.1234 21.6159 21.4862 16.524 21.4862 12.109C21.4862 11.9623 21.483 11.8202 21.4768 11.6765C22.1294 11.2097 22.6953 10.6205 23.1431 9.94984L23.1446 9.94831L23.1444 9.94849Z" fill="white"/>
</g>
</svg>
