<svg width="30" height="30" viewBox="0 0 30 30" fill="none" xmlns="http://www.w3.org/2000/svg">
<g style="mix-blend-mode:luminosity" clip-path="url(#clip0)">
<path fill-rule="evenodd" clip-rule="evenodd" d="M15 0C23.2844 0 30.0001 6.71572 30.0001 15C30.0001 23.2844 23.2844 30.0001 15 30.0001C6.71572 30.0001 0 23.2844 0 15C0 6.71572 6.71572 0 15 0ZM17.0137 10.789C17.5335 10.8999 17.9321 11.0978 18.2725 11.4172C18.7106 11.8315 18.9508 12.3329 19.0563 13.0534C19.1275 13.5231 19.0986 13.7079 18.9322 13.861C18.7765 14.0035 18.4889 14.0088 18.3147 13.8742C18.1881 13.7792 18.1485 13.6789 18.1194 13.407C18.0852 13.0455 18.0218 12.7922 17.9136 12.5573C17.6813 12.0585 17.2723 11.7998 16.5809 11.7154C16.2563 11.6759 16.1586 11.6389 16.053 11.5149C15.8604 11.2852 15.9343 10.9132 16.2008 10.7759C16.3012 10.7258 16.3434 10.7205 16.5651 10.7337C16.7022 10.7416 16.9055 10.7654 17.0137 10.789ZM16.2695 6.8833C17.1773 6.99679 17.911 7.21585 18.7159 7.60906C19.5075 7.99705 20.0142 8.3638 20.6845 9.03151C21.3127 9.66223 21.661 10.1399 22.0305 10.8815C22.5451 11.9159 22.8381 13.1457 22.8881 14.4996C22.9066 14.9613 22.8934 15.0643 22.7878 15.1962C22.5873 15.4523 22.1466 15.41 21.9962 15.1224C21.9487 15.0274 21.9355 14.9457 21.9197 14.5761C21.8932 14.0088 21.8537 13.6419 21.7745 13.2038C21.4631 11.4858 20.6397 10.1136 19.3254 9.12916C18.2302 8.30584 17.0981 7.90462 15.615 7.8175C15.1136 7.78852 15.0265 7.76998 14.913 7.68295C14.7019 7.51663 14.6913 7.12612 14.8945 6.94405C15.0185 6.83056 15.1056 6.81472 15.5358 6.82786C15.7601 6.83578 16.0899 6.86215 16.2694 6.8833V6.88321L16.2695 6.8833ZM10.2367 7.16833C10.3291 7.20001 10.4716 7.2739 10.5534 7.32664C11.0549 7.6591 12.4509 9.44578 12.9075 10.3378C13.1686 10.8471 13.2558 11.2245 13.174 11.5042C13.0895 11.805 12.9497 11.9634 12.3242 12.4674C12.0735 12.6707 11.8386 12.8791 11.8017 12.9345C11.7067 13.0718 11.6301 13.341 11.6301 13.531C11.6328 13.9717 11.9177 14.7713 12.2926 15.3862C12.5828 15.8639 13.1028 16.4761 13.6173 16.9459C14.2216 17.5001 14.7547 17.8774 15.3564 18.1757C16.1296 18.561 16.6021 18.6586 16.9477 18.4976C17.0348 18.4581 17.1272 18.4053 17.1563 18.3816C17.1826 18.3578 17.3858 18.1097 17.6075 17.8353C18.035 17.2969 18.1326 17.2098 18.4256 17.1096C18.7978 16.9829 19.1778 17.0171 19.5603 17.2124C19.8507 17.3629 20.484 17.7561 20.8931 18.0411C21.4314 18.4184 22.582 19.3579 22.7377 19.5454C23.0122 19.8832 23.0597 20.3159 22.875 20.7936C22.6797 21.2976 21.9196 22.2424 21.3892 22.6462C20.9088 23.0104 20.5684 23.1502 20.1198 23.1713C19.7503 23.1898 19.5972 23.1581 19.1248 22.9628C15.4196 21.4348 12.4613 19.1547 10.1126 16.0222C8.88544 14.386 7.95124 12.6891 7.31251 10.9288C6.94045 9.90226 6.922 9.45622 7.22809 8.93107C7.36003 8.7094 7.92217 8.16049 8.33122 7.8544C9.01207 7.3477 9.32617 7.16032 9.57691 7.10758C9.74845 7.07059 10.0466 7.09966 10.2366 7.16833H10.2367ZM16.4516 8.79661C18.0535 9.03142 19.2939 9.77572 20.1066 10.9844C20.5632 11.6653 20.8482 12.4649 20.9458 13.3225C20.9801 13.6366 20.9801 14.2093 20.9432 14.3043C20.9088 14.3941 20.798 14.5154 20.703 14.5656C20.6001 14.6184 20.3811 14.6131 20.2597 14.5498C20.0565 14.4469 19.9958 14.2833 19.9958 13.8399C19.9958 13.1564 19.8189 12.4359 19.5128 11.8765C19.1644 11.2379 18.6578 10.7101 18.0403 10.3432C17.5099 10.0265 16.7261 9.79165 16.0108 9.73351C15.7522 9.71245 15.6097 9.65971 15.5121 9.54622C15.3617 9.37468 15.3457 9.14248 15.4725 8.94979C15.6097 8.73604 15.8208 8.70175 16.4516 8.7967V8.79661Z" fill="white"/>
</g>
<defs>
<clipPath id="clip0">
<rect width="30" height="30" fill="white"/>
</clipPath>
</defs>
</svg>
